<?xml version="1.0" encoding="UTF-8" standalone="no"?>
<!-- Created with Inkscape (http://www.inkscape.org/) -->

<svg
   xmlns:dc="http://purl.org/dc/elements/1.1/"
   xmlns:cc="http://creativecommons.org/ns#"
   xmlns:rdf="http://www.w3.org/1999/02/22-rdf-syntax-ns#"
   xmlns:svg="http://www.w3.org/2000/svg"
   xmlns="http://www.w3.org/2000/svg"
   xmlns:sodipodi="http://sodipodi.sourceforge.net/DTD/sodipodi-0.dtd"
   xmlns:inkscape="http://www.inkscape.org/namespaces/inkscape"
   version="1.1"
   id="svg2"
   xml:space="preserve"
   width="110.66667"
   height="93.333336"
   viewBox="0 0 110.66667 93.333336"
   sodipodi:docname="logo.svg"
   inkscape:version="0.92.5 (2060ec1f9f, 2020-04-08)"><metadata
     id="metadata8"><rdf:RDF><cc:Work
         rdf:about=""><dc:format>image/svg+xml</dc:format><dc:type
           rdf:resource="http://purl.org/dc/dcmitype/StillImage" /><dc:title></dc:title></cc:Work></rdf:RDF></metadata><defs
     id="defs6" /><sodipodi:namedview
     pagecolor="#ffffff"
     bordercolor="#666666"
     borderopacity="1"
     objecttolerance="10"
     gridtolerance="10"
     guidetolerance="10"
     inkscape:pageopacity="0"
     inkscape:pageshadow="2"
     inkscape:window-width="823"
     inkscape:window-height="480"
     id="namedview4"
     showgrid="false"
     inkscape:zoom="2.5285714"
     inkscape:cx="55.333336"
     inkscape:cy="46.666668"
     inkscape:window-x="0"
     inkscape:window-y="0"
     inkscape:window-maximized="0"
     inkscape:current-layer="g10" /><g
     id="g10"
     inkscape:groupmode="layer"
     inkscape:label="ink_ext_XXXXXX"
     transform="matrix(1.3333333,0,0,-1.3333333,0,93.333333)"><g
       id="g12"
       transform="scale(0.1)"><path
         d="m 199.531,208.75 v -10.27 h 15.508 v 12.649 c -5.59,-0.508 -10.98,-1.399 -15.508,-2.379"
         style="fill:#101b29;fill-opacity:1;fill-rule:nonzero;stroke:none"
         id="path14"
         inkscape:connector-curvature="0" /><path
         d="m 500.59,208.75 v -10.27 h 15.5 v 12.649 c -5.578,-0.508 -10.969,-1.399 -15.5,-2.379"
         style="fill:#101b29;fill-opacity:1;fill-rule:nonzero;stroke:none"
         id="path16"
         inkscape:connector-curvature="0" /><path
         d="M 64.6914,117.27 C 36.4102,117.27 27.5,131.602 27.5,153.828 v 54.922 h 15.5117 v -53.012 c 0,-17.109 5.8985,-26.398 21.6797,-26.398 15.3477,0 21.207,9.609 21.207,26.398 v 53.012 h 15.6606 v -54.77 c 0,-22.5 -11.7895,-36.71 -36.8676,-36.71"
         style="fill:#101b29;fill-opacity:1;fill-rule:nonzero;stroke:none"
         id="path18"
         inkscape:connector-curvature="0" /><path
         d="m 166.801,118.98 v 44.77 c 0,13.48 -4.891,19.531 -17.66,19.531 -8.161,0 -15.782,-2.301 -18.36,-3.32 V 118.98 h -14.922 v 69.141 c 3.75,1.289 18.672,6.059 33.711,6.059 20.551,0 32.149,-7.77 32.149,-24.102 V 118.98 Z"
         style="fill:#101b29;fill-opacity:1;fill-rule:nonzero;stroke:none"
         id="path20"
         inkscape:connector-curvature="0" /><path
         d="m 270.551,118.98 h -19.653 l -25.976,73.481 h 15.777 l 20.391,-63.012 20.238,63.012 h 15.043 z"
         style="fill:#101b29;fill-opacity:1;fill-rule:nonzero;stroke:none"
         id="path22"
         inkscape:connector-curvature="0" /><path
         d="m 316.762,152.852 c 0.269,-16.641 7.027,-25.231 23.937,-25.231 10.082,0 22.11,4.41 24.141,6.438 v -11.207 c -1.719,-1.293 -12.649,-5.582 -28.711,-5.582 -26.25,0 -34.289,13.628 -34.289,40.308 0,23.832 12.5,36.602 33.43,36.602 20.511,0 33.171,-13.2 33.171,-36.602 v -4.726 z m 18.508,31.25 c -11.911,0 -18.239,-7.731 -18.508,-22.071 h 37.148 c -0.281,12.77 -6.449,22.071 -18.64,22.071"
         style="fill:#101b29;fill-opacity:1;fill-rule:nonzero;stroke:none"
         id="path24"
         inkscape:connector-curvature="0" /><path
         d="m 416.211,183.551 c -7.77,0 -16.09,-2.571 -18.402,-3.16 V 118.98 H 382.93 v 69.301 c 2.582,1.289 18.05,5.899 31.41,5.899 1.012,0 8.16,-0.16 9.332,-0.739 v -10.589 c -1.442,0.269 -5.742,0.699 -7.461,0.699"
         style="fill:#101b29;fill-opacity:1;fill-rule:nonzero;stroke:none"
         id="path26"
         inkscape:connector-curvature="0" /><path
         d="m 456.68,117.27 c -15.508,0 -25.43,3.859 -28.129,5.582 v 11.207 c 4.89,-3.321 16.058,-6.481 24.539,-6.481 13.199,0 18.359,4.762 18.359,10.621 0,4.891 -4.89,7.891 -11.058,10.352 -15.039,5.859 -31.993,9.461 -31.993,24.539 0,13.629 12.774,21.09 29.141,21.09 14.609,0 25.082,-4.45 26.52,-5.469 v -10.902 c -3.86,2.152 -13.2,5.902 -23.239,5.902 -12.89,0 -17.34,-4.449 -17.34,-9.492 0,-4.571 5,-7.309 11.168,-9.731 12.192,-4.918 32.301,-9.488 32.301,-23.976 0,-14.223 -9.918,-23.242 -30.269,-23.242"
         style="fill:#101b29;fill-opacity:1;fill-rule:nonzero;stroke:none"
         id="path28"
         inkscape:connector-curvature="0" /><path
         d="m 644.922,117.27 c -20.66,0 -31.832,8.16 -31.832,23.242 0,17.648 17.648,24.097 35.859,24.097 h 17.071 v 5.039 c 0,9.18 -5.86,14.332 -21.372,14.332 -10.777,0 -23.558,-5.031 -25.699,-6.011 v 10.742 c 2.461,0.859 15.66,5.469 29.289,5.469 22.383,0 32.422,-7.34 32.422,-25.27 v -46.762 c -3.32,-1.449 -15.5,-4.878 -35.738,-4.878 m 21.098,38.32 h -12.04 c -16.359,0 -25.968,-3.602 -25.968,-14.649 0,-8.75 7.148,-13.793 18.078,-13.793 9.73,0 18.051,1.723 19.93,2.582 z"
         style="fill:#101b29;fill-opacity:1;fill-rule:nonzero;stroke:none"
         id="path30"
         inkscape:connector-curvature="0" /><path
         d="m 199.801,118.98 h 14.918 v 73.4805 h -14.918 z"
         style="fill:#101b29;fill-opacity:1;fill-rule:nonzero;stroke:none"
         id="path32"
         inkscape:connector-curvature="0" /><path
         d="m 584.961,189.57 c -2.031,1.02 -11.641,4.61 -22.383,4.61 -18.949,0 -31.719,-12.5 -31.719,-36.602 0,-27.109 9.18,-40.308 35.43,-40.308 15.191,0 27.973,3.75 33.59,6.171 v 91.129 c -5.231,-0.351 -10.43,-1.129 -14.918,-2.031 z m 0,-58.242 c -2.031,-0.859 -9.18,-3.437 -18.512,-3.437 -13.91,0 -20.238,8.589 -20.238,29.687 0,17.223 6.758,25.82 20.391,25.82 7.308,0 15.347,-2.418 18.359,-3.867 z"
         style="fill:#101b29;fill-opacity:1;fill-rule:nonzero;stroke:none"
         id="path34"
         inkscape:connector-curvature="0" /><path
         d="m 500.859,118.98 h 14.9219 v 73.4805 H 500.859 Z"
         style="fill:#101b29;fill-opacity:1;fill-rule:nonzero;stroke:none"
         id="path36"
         inkscape:connector-curvature="0" /><path
         d="m 749.262,189.57 c -2.032,1.02 -11.641,4.61 -22.383,4.61 -18.949,0 -31.719,-12.5 -31.719,-36.602 0,-27.109 9.18,-40.308 35.43,-40.308 15.191,0 27.961,3.75 33.59,6.171 v 91.129 c -5.231,-0.351 -10.43,-1.129 -14.918,-2.031 z m 0,-58.242 c -2.032,-0.859 -9.184,-3.437 -18.524,-3.437 -13.898,0 -20.226,8.589 -20.226,29.687 0,17.223 6.758,25.82 20.386,25.82 7.301,0 15.352,-2.418 18.364,-3.867 z"
         style="fill:#101b29;fill-opacity:1;fill-rule:nonzero;stroke:none"
         id="path38"
         inkscape:connector-curvature="0" /><path
         d="M 531.719,5.19922 H 498.16 V 96.5195 h 31.801 c 20.039,0 32.109,-7.6484 32.109,-22.8086 0,-11.0117 -7.5,-18.6718 -18.398,-20.5507 13.047,-1.9102 20.707,-9.6797 20.707,-23.1211 0,-17.0274 -11.449,-24.83988 -32.66,-24.83988 M 528.91,86.0508 h -16.371 v -28.082 h 16.762 c 10.078,0 18.277,4.4531 18.277,14.2617 0,10.1914 -6.879,13.8203 -18.668,13.8203 m 0.11,-38.2813 H 512.539 V 15.6602 h 16.762 c 12.89,0 20.148,4.1796 20.148,15.8593 0,10.9024 -6.828,16.25 -20.429,16.25"
         style="fill:#101b29;fill-opacity:1;fill-rule:nonzero;stroke:none"
         id="path40"
         inkscape:connector-curvature="0" /><path
         d="m 590.738,39.0586 c 0.282,-16.6367 7.032,-25.2305 23.953,-25.2305 10.039,0 22.11,4.4102 24.098,6.4414 V 9.05859 C 637.07,7.76953 626.172,3.48047 610.121,3.48047 c -26.25,0 -34.301,13.62893 -34.301,40.34763 0,23.793 12.5,36.5625 33.442,36.5625 20.508,0 33.117,-13.1992 33.117,-36.5625 v -4.7695 z m 18.524,31.293 c -11.922,0 -18.242,-7.7305 -18.524,-22.1133 h 37.153 c -0.27,12.7812 -6.442,22.1133 -18.629,22.1133"
         style="fill:#101b29;fill-opacity:1;fill-rule:nonzero;stroke:none"
         id="path42"
         inkscape:connector-curvature="0" /><path
         d="m 755.738,3.48047 c -27.968,0 -35.859,12.92973 -35.859,40.30863 0,25.9804 12.781,36.6015 35.859,36.6015 23.563,0 36.172,-10.1914 36.172,-36.6015 0,-30.6993 -12.609,-40.30863 -36.172,-40.30863 m 0,66.12893 c -14.758,0 -20.508,-7.7305 -20.508,-25.8203 0,-21.8008 5.75,-29.6875 20.508,-29.6875 14.223,0 20.672,8.4765 20.672,29.6875 0,17.9297 -6.019,25.8203 -20.672,25.8203"
         style="fill:#101b29;fill-opacity:1;fill-rule:nonzero;stroke:none"
         id="path44"
         inkscape:connector-curvature="0" /><path
         d="m 814.379,66.1289 c 7.609,0 13.59,-5.9297 13.59,-13.5078 0,-7.7422 -5.981,-13.6719 -13.668,-13.6719 -7.742,0 -13.871,5.9297 -13.871,13.6719 0,7.5781 6.129,13.5078 13.871,13.5078 z m -0.16,-2.3789 c -6.129,0 -10.778,-5 -10.778,-11.1289 0,-6.293 4.649,-11.2109 10.938,-11.2109 6.012,-0.0821 10.582,4.9179 10.582,11.1289 0,6.2109 -4.57,11.2109 -10.66,11.2109 z M 811.84,45.1602 h -2.66 v 14.1796 c 1.441,0.2696 2.968,0.4297 4.922,0.4297 2.378,0 3.597,-0.4297 4.418,-1.1406 0.859,-0.5781 1.441,-1.6797 1.441,-3.0391 0,-1.6796 -1.25,-2.8203 -2.691,-3.3203 v -0.1601 c 1.171,-0.5078 1.871,-1.5977 2.261,-3.4805 0.43,-2.1094 0.778,-2.9687 1.129,-3.4687 h -2.73 c -0.43,0.5 -0.739,1.789 -1.168,3.6679 -0.352,1.6016 -1.293,2.2617 -3.242,2.2617 h -1.68 z m 0,7.9609 h 1.75 c 1.879,0 3.68,0.5898 3.68,2.2305 0,1.3672 -0.942,2.3789 -3.399,2.3789 -1.019,0 -1.601,-0.1094 -2.031,-0.1914 z"
         style="fill:#101b29;fill-opacity:1;fill-rule:nonzero;stroke:none"
         id="path46"
         inkscape:connector-curvature="0" /><path
         d="m 689.879,5.19922 h 14.922 V 98.6289 C 699.609,98.2813 694.41,97.5 689.879,96.6016 Z"
         style="fill:#101b29;fill-opacity:1;fill-rule:nonzero;stroke:none"
         id="path48"
         inkscape:connector-curvature="0" /><path
         d="M 656.879,5.19922 H 671.84 V 98.6289 C 666.602,98.2813 661.41,97.5 656.879,96.6016 Z"
         style="fill:#101b29;fill-opacity:1;fill-rule:nonzero;stroke:none"
         id="path50"
         inkscape:connector-curvature="0" /><path
         d="M 146.211,5.19922 V 50 c 0,13.4414 -4.883,19.4883 -17.66,19.4883 -8.16,0 -15.781,-2.2969 -18.352,-3.2774 V 5.19922 H 95.2695 V 74.3789 c 3.75,1.2813 18.6795,6.0117 33.7105,6.0117 20.551,0 32.149,-7.7304 32.149,-24.1015 V 5.19922 Z"
         style="fill:#101b29;fill-opacity:1;fill-rule:nonzero;stroke:none"
         id="path52"
         inkscape:connector-curvature="0" /><path
         d="m 296.602,69.7695 c -7.731,0 -16.051,-2.5781 -18.364,-3.1679 V 5.19922 H 263.32 V 74.4883 c 2.578,1.332 18.09,5.9023 31.41,5.9023 1.008,0 8.2,-0.1601 9.329,-0.6992 V 69.0586 c -1.438,0.2812 -5.739,0.7109 -7.457,0.7109"
         style="fill:#101b29;fill-opacity:1;fill-rule:nonzero;stroke:none"
         id="path54"
         inkscape:connector-curvature="0" /><path
         d="m 325.309,39.0586 c 0.281,-16.6367 7.031,-25.2305 23.953,-25.2305 10.039,0 22.109,4.4102 24.097,6.4414 V 9.05859 c -1.718,-1.28906 -12.621,-5.57812 -28.668,-5.57812 -26.293,0 -34.3,13.62893 -34.3,40.34763 0,23.793 12.461,36.5625 33.437,36.5625 20.512,0 33.121,-13.1992 33.121,-36.5625 v -4.7695 z m 18.519,31.293 c -11.918,0 -18.238,-7.7305 -18.519,-22.1133 h 37.152 c -0.27,12.7812 -6.441,22.1133 -18.633,22.1133"
         style="fill:#101b29;fill-opacity:1;fill-rule:nonzero;stroke:none"
         id="path56"
         inkscape:connector-curvature="0" /><path
         d="m 415.121,3.48047 c -15.512,0 -25.391,3.85937 -28.133,5.62109 V 20.2695 c 4.891,-3.2812 16.102,-6.4414 24.532,-6.4414 13.21,0 18.402,4.7227 18.402,10.5821 0,4.8906 -4.883,7.8906 -11.051,10.3593 -15.082,5.8907 -31.992,9.4493 -31.992,24.5313 0,13.6289 12.73,21.0898 29.101,21.0898 14.641,0 25.11,-4.4492 26.559,-5.4297 V 64.0195 c -3.867,2.1524 -13.199,5.9024 -23.238,5.9024 -12.93,0 -17.391,-4.4531 -17.391,-9.4922 0,-4.5703 5.039,-7.3086 11.211,-9.7305 12.188,-4.8789 32.27,-9.4883 32.27,-23.9804 0,-14.2188 -9.879,-23.23833 -30.27,-23.23833"
         style="fill:#101b29;fill-opacity:1;fill-rule:nonzero;stroke:none"
         id="path58"
         inkscape:connector-curvature="0" /><path
         d="m 346.68,101.09 -7.852,-12.6916 h 11.051 l 11.883,15.0816 c -5.434,-0.511 -10.711,-1.41 -15.082,-2.39"
         style="fill:#101b29;fill-opacity:1;fill-rule:nonzero;stroke:none"
         id="path60"
         inkscape:connector-curvature="0" /><path
         d="M 68.7109,5.19922 H 85.3906 L 52.8086,102.77 H 33.1602 L 0,5.19922 H 15.9414 L 23.6719,30.5508 H 61.0508 Z M 27.6992,43.6719 42.4609,91.8789 57.0703,43.6719 Z"
         style="fill:#101b29;fill-opacity:1;fill-rule:nonzero;stroke:none"
         id="path62"
         inkscape:connector-curvature="0" /><path
         d="m 230.512,74.8008 c -1.992,1.0195 -11.602,4.6094 -22.352,4.6094 -18.941,0 -31.711,-12.5 -31.711,-36.6016 0,-27.1094 9.172,-40.3086 35.43,-40.3086 15.191,0 27.961,3.71094 33.551,6.17188 V 99.8008 c -5.2,-0.3516 -10.391,-1.1289 -14.918,-2.0313 z m 0,-58.2422 c -1.992,-0.8594 -9.184,-3.4688 -18.481,-3.4688 -13.941,0 -20.269,8.629 -20.269,29.7188 0,17.2305 6.758,25.8203 20.386,25.8203 7.34,0 15.352,-2.418 18.364,-3.8594 z"
         style="fill:#101b29;fill-opacity:1;fill-rule:nonzero;stroke:none"
         id="path64"
         inkscape:connector-curvature="0" /><path
         d="m 395.941,247.34 c -40.203,0 -78.992,12.23 -112.703,35.39 l -4.879,-3.082 v -16.019 c 0,-8.43 -6.757,-15.309 -15.078,-15.309 h -40.66 c -11.801,0.078 -21.293,9.879 -21.293,21.879 v 30.821 c 0,7.218 3.711,14.101 9.762,17.89 l 21.058,13.281 c -29.726,40 -45.976,89.61 -45.976,141.168 0,124.61 94.137,225.981 209.769,225.981 115.7,0 209.797,-101.371 209.797,-225.981 0,-51.64 -16.289,-101.371 -46.129,-141.371 l 20.743,-13.078 c 6.019,-3.789 9.769,-10.672 9.769,-17.89 v -30.821 c 0,-12 -9.531,-21.801 -21.25,-21.879 H 528.16 c -8.32,0 -15.07,6.879 -15.07,15.309 v 16.019 l -4.649,2.93 c -33.64,-23.09 -72.351,-35.238 -112.5,-35.238"
         style="fill:#ffffff;fill-opacity:1;fill-rule:nonzero;stroke:none"
         id="path66"
         inkscape:connector-curvature="0" /><path
         d="m 395.941,247.34 c -40.203,0 -78.992,12.23 -112.703,35.39 l -4.879,-3.082 v -16.019 c 0,-8.43 -6.757,-15.309 -15.078,-15.309 h -40.66 c -11.801,0.078 -21.293,9.879 -21.293,21.879 v 30.821 c 0,7.218 3.711,14.101 9.762,17.89 l 21.058,13.281 c -29.726,40 -45.976,89.61 -45.976,141.168 0,124.61 94.137,225.981 209.769,225.981 115.7,0 209.797,-101.371 209.797,-225.981 0,-51.64 -16.289,-101.371 -46.129,-141.371 l 20.743,-13.078 c 6.019,-3.789 9.769,-10.672 9.769,-17.89 v -30.821 c 0,-12 -9.531,-21.801 -21.25,-21.879 H 528.16 c -8.32,0 -15.07,6.879 -15.07,15.309 v 16.019 l -4.649,2.93 c -33.64,-23.09 -72.351,-35.238 -112.5,-35.238 z"
         style="fill:none;stroke:#101b29;stroke-width:1.32000005;stroke-linecap:round;stroke-linejoin:round;stroke-miterlimit:10;stroke-dasharray:none;stroke-opacity:1"
         id="path68"
         inkscape:connector-curvature="0" /><path
         d="m 290.352,410.82 h 57.6172 V 527.422 H 290.352 Z"
         style="fill:#ac1d33;fill-opacity:1;fill-rule:nonzero;stroke:none"
         id="path70"
         inkscape:connector-curvature="0" /><path
         d="m 443.949,410.82 h 57.6211 V 527.422 H 443.949 Z"
         style="fill:#ac1d33;fill-opacity:1;fill-rule:nonzero;stroke:none"
         id="path72"
         inkscape:connector-curvature="0" /><path
         d="M 396.371,562.379 364.57,527.422 V 410.859 h 62.77 v 116.563 z"
         style="fill:#ac1d33;fill-opacity:1;fill-rule:nonzero;stroke:none"
         id="path74"
         inkscape:connector-curvature="0" /><path
         d="M 574.488,309.648 543.48,329.18 c 31.872,38.16 51.29,88.711 51.29,144.179 0,118.75 -89.032,215.039 -198.79,215.039 -109.808,0 -198.832,-96.289 -198.832,-215.039 0,-55.39 19.332,-105.859 51.133,-143.949 L 216.91,309.648 c -2.89,-1.839 -4.64,-5.117 -4.64,-8.628 v -30.79 c 0,-6.402 4.96,-10.929 10.351,-10.929 h 40.617 c 2.313,0 4.184,1.91 4.184,4.328 v 22.07 l 16.207,10.199 c 31.961,-23.707 70.672,-37.578 112.351,-37.578 41.559,0 80.149,13.828 112.071,37.418 l 15.969,-10.039 v -22.07 c 0,-2.418 1.839,-4.328 4.14,-4.328 h 40.668 c 5.391,0 10.352,4.527 10.352,10.929 v 30.79 c 0,3.511 -1.801,6.789 -4.692,8.628 m -178.508,2.114 c -82.539,0 -149.421,72.34 -149.421,161.597 0,89.219 66.882,161.602 149.421,161.602 82.5,0 149.372,-72.383 149.372,-161.602 0,-89.257 -66.872,-161.597 -149.372,-161.597"
         style="fill:#101b29;fill-opacity:1;fill-rule:nonzero;stroke:none"
         id="path76"
         inkscape:connector-curvature="0" /></g></g></svg>